<svg width="22.000000" height="22.000000" viewBox="0 0 22 22" fill="none" xmlns="http://www.w3.org/2000/svg" xmlns:xlink="http://www.w3.org/1999/xlink">
	<desc>
			Created with Pixso.
	</desc>
	<defs/>
	<path id="icon" d="M0 9.6001C0 6.23975 0 4.55957 0.653931 3.27612C1.22925 2.14697 2.14709 1.22925 3.276 0.654053C4.55957 0 6.23975 0 9.59998 0L12.4 0C15.7603 0 17.4404 0 18.724 0.654053C19.8529 1.22925 20.7708 2.14697 21.3461 3.27612C22 4.55957 22 6.23975 22 9.6001L22 12.3999C22 15.7603 22 17.4404 21.3461 18.7239C20.7708 19.853 19.8529 20.7708 18.724 21.3459C17.4404 22 15.7603 22 12.4 22L9.59998 22C6.23975 22 4.55957 22 3.276 21.3459C2.14709 20.7708 1.22925 19.853 0.653931 18.7239C0 17.4404 0 15.7603 0 12.3999L0 9.6001ZM9.59998 2L12.4 2C14.1132 2 15.2777 2.00146 16.178 2.0752C17.0548 2.14673 17.5032 2.27661 17.8159 2.43604C18.5686 2.81958 19.1805 3.4314 19.564 4.18408C19.7234 4.49683 19.8533 4.94531 19.9249 5.82202C19.9984 6.72217 20 7.88696 20 9.6001L20 12.3999C20 14.113 19.9984 15.2778 19.9249 16.178C19.8533 17.0547 19.7234 17.5032 19.564 17.8159C19.1805 18.5686 18.5686 19.1804 17.8159 19.564C17.5032 19.7234 17.0548 19.8533 16.178 19.9248C15.2777 19.9985 14.1132 20 12.4 20L9.59998 20C7.88684 20 6.72229 19.9985 5.82202 19.9248C4.94519 19.8533 4.49683 19.7234 4.18408 19.564C3.4314 19.1804 2.81946 18.5686 2.43591 17.8159C2.27661 17.5032 2.14673 17.0547 2.07507 16.178C2.00159 15.2778 2 14.113 2 12.3999L2 9.6001C2 7.88672 2.00159 6.72217 2.07507 5.82202C2.14673 4.94531 2.27661 4.49683 2.43591 4.18408C2.81946 3.4314 3.4314 2.81958 4.18408 2.43604C4.49683 2.27661 4.94519 2.14673 5.82202 2.0752C6.72229 2.00146 7.88684 2 9.59998 2ZM17 4C16.4478 4 16 4.44775 16 5C16 5.55225 16.4478 6 17 6C17.5522 6 18 5.55225 18 5C18 4.44775 17.5522 4 17 4ZM11 17C14.3137 17 17 14.3137 17 11C17 7.68628 14.3137 5 11 5C7.68628 5 5 7.68628 5 11C5 14.3137 7.68628 17 11 17ZM11 15C13.2091 15 15 13.2092 15 11C15 8.79077 13.2091 7 11 7C8.79089 7 7 8.79077 7 11C7 13.2092 8.79089 15 11 15Z" fill="#0F0F0F" fill-opacity="1.000000" fill-rule="evenodd"/>
</svg>
