<svg xmlns="http://www.w3.org/2000/svg" width="18" height="22" fill="none"><path fill="none" d="M0 0h18v22H0z"/><path fill="#151618" fill-rule="evenodd" d="M14 5.5c0 3.038-2.239 5.5-5 5.5S4 8.538 4 5.5 6.239 0 9 0s5 2.462 5 5.5Zm-8 0c0 1.823 1.343 3.3 3 3.3s3-1.477 3-3.3c0-1.823-1.343-3.3-3-3.3S6 3.677 6 5.5Zm6.916 7.199a2.608 2.608 0 0 1 3.187.41 9.71 9.71 0 0 1 1.197 1.43c.345.52.7 1.215.7 1.961V19a3 3 0 0 1-3 3H3a3 3 0 0 1-3-3v-2.5c0-.736.346-1.422.685-1.937.355-.541.8-1.037 1.18-1.421a2.628 2.628 0 0 1 3.255-.388l.297.184c.481.3.847.526 1.31.707.522.204 1.2.355 2.273.355 1.084 0 1.75-.16 2.265-.372.41-.168.729-.365 1.139-.617.154-.096.322-.2.512-.312Zm1.77 1.822a.608.608 0 0 0-.75-.102c-.121.072-.248.15-.38.232-.448.277-.955.59-1.53.827C11.23 15.804 10.3 16 9 16c-1.276 0-2.207-.182-3.002-.492-.649-.254-1.189-.591-1.671-.892-.086-.054-.17-.107-.253-.157a.629.629 0 0 0-.788.09 7.577 7.577 0 0 0-.93 1.112c-.27.412-.356.694-.356.839V19a1 1 0 0 0 1 1h12a1 1 0 0 0 1-1v-2.5c0-.148-.089-.436-.367-.855a7.743 7.743 0 0 0-.947-1.124Z"/></svg>