<svg width="20.805054" height="20.805176" viewBox="0 0 20.8051 20.8052" fill="none" xmlns="http://www.w3.org/2000/svg" xmlns:xlink="http://www.w3.org/1999/xlink">
	<desc>
			Created with Pixso.
	</desc>
	<defs/>
	<path id="icon" d="M15.6675 20.7244C13.6473 20.2183 9.51184 18.7915 5.7627 15.0422C2.01367 11.2932 0.586792 7.15771 0.0806885 5.1377C-0.210205 3.97681 0.313599 2.85645 1.20166 2.22217L3.52991 0.559082C4.89221 -0.414062 6.78735 -0.0837402 7.74023 1.29272L9.20605 3.40991C9.82825 4.30859 9.61365 5.54053 8.72412 6.17578L7.5553 7.01074C7.73218 7.68726 8.28235 9.07666 10.0054 10.7998C11.7284 12.5227 13.1179 13.0728 13.7944 13.2498L14.6293 12.0811C15.2646 11.1914 16.4965 10.9768 17.3951 11.5991L19.5125 13.0649C20.8889 14.0178 21.2191 15.9128 20.246 17.2751L18.583 19.6035C17.9486 20.4915 16.8284 21.0154 15.6675 20.7244ZM7.177 13.6282C10.5863 17.0376 14.3488 18.3323 16.1536 18.7844C16.4174 18.8506 16.7362 18.748 16.9556 18.4409L18.6185 16.1128C18.9429 15.6587 18.8329 15.0269 18.374 14.7092L16.2568 13.2434L15.3608 14.4978C14.9948 15.0103 14.3176 15.4124 13.5293 15.2422C12.5453 15.03 10.7263 14.3491 8.59119 12.2139C6.45605 10.0789 5.77515 8.25977 5.56287 7.27588C5.3927 6.48755 5.7948 5.8103 6.30737 5.44409L7.56165 4.54834L6.09583 2.43115C5.7782 1.97217 5.14648 1.86206 4.69238 2.18652L2.36414 3.84961C2.05713 4.06885 1.95459 4.3877 2.02075 4.65161C2.4729 6.4563 3.76758 10.2188 7.177 13.6282Z" fill="#151618" fill-opacity="1.000000" fill-rule="evenodd"/>
</svg>
