<svg xmlns="http://www.w3.org/2000/svg" width="60" height="60" fill="none"><path fill="#754E29" d="M50.886 16.485c.002 1.52-.21 3.033-.629 4.495h4.922c2.664 0 4.821 2.128 4.821 4.754v14.728a19.29 19.29 0 0 1-3.018 10.35A19.656 19.656 0 0 1 48.852 58a19.982 19.982 0 0 1-10.758 1.827 19.89 19.89 0 0 1-10.1-4.091l-3.599 3.549a2.28 2.28 0 0 1-1.627.715 2.308 2.308 0 0 1-1.651-.658 2.218 2.218 0 0 1-.47-2.504c.124-.276.304-.525.528-.73l3.597-3.552a19.396 19.396 0 0 1-2.898-4.96 18.468 18.468 0 0 1-8.01-.16 18.326 18.326 0 0 1-7.166-3.532 18.025 18.025 0 0 1-4.94-6.222A17.784 17.784 0 0 1 0 29.972V16.527c0-2.506 2.06-4.538 4.6-4.538h13.497c.993-3.453 3.1-6.491 6.003-8.655A16.865 16.865 0 0 1 34.177 0h12.334c2.415 0 4.375 1.933 4.375 4.316v12.169ZM22.7 12.535a18.367 18.367 0 0 1 6.91 3.389 18.072 18.072 0 0 1 4.874 5.902 19.986 19.986 0 0 1 5.77-.846h5.194c.584-1.428.883-2.955.881-4.495V4.495H34.177c-2.522 0-4.981.775-7.038 2.215a12.012 12.012 0 0 0-4.44 5.824Zm8.546 39.994a15.366 15.366 0 0 0 15.86 1.308 15.115 15.115 0 0 0 6.086-5.524 14.837 14.837 0 0 0 2.251-7.85v-14.73a.254.254 0 0 0-.076-.181.26.26 0 0 0-.185-.076H40.253c-2.81 0-5.564.77-7.957 2.221a15.062 15.062 0 0 0-5.6 6.005 14.812 14.812 0 0 0 1.326 15.647l12.9-12.723a2.303 2.303 0 0 1 3.278-.057 2.222 2.222 0 0 1-.058 3.234L31.246 52.529Zm-10.74-12.067a19.3 19.3 0 0 1 .693-5.128l-8.379-8.27a2.248 2.248 0 0 1-.725-1.604 2.22 2.22 0 0 1 .667-1.63 2.286 2.286 0 0 1 1.652-.657 2.306 2.306 0 0 1 1.627.715l7.041 6.944a19.71 19.71 0 0 1 7.216-7.2 13.566 13.566 0 0 0-5.03-5.224 13.81 13.81 0 0 0-7.04-1.923H4.584l-.015.012a.061.061 0 0 0-.009.015l-.003.015v13.445c0 1.978.44 3.933 1.292 5.724A13.51 13.51 0 0 0 9.48 40.34a13.738 13.738 0 0 0 5.286 2.683c1.94.5 3.968.574 5.94.215-.133-.919-.2-1.846-.2-2.775Z"/></svg>