<svg xmlns="http://www.w3.org/2000/svg" width="60" height="60" fill="none"><path fill="#754E29" d="m25.556.154-.014-.02-.037.029C11.17 1.687 0 13.828 0 28.589c0 6.61 2.241 12.696 6.005 17.54v.005h.006a28.5 28.5 0 0 0 19.76 10.91c.133-1.361.465-2.785.961-4.223a24.197 24.197 0 0 1-16.078-7.822c.156-.686.228-1.484.285-2.176l.026-.337c.051-.63.1-1.235.18-1.847.2-1.507.542-2.513 1.076-3.082.685-.735 1.388-.858 2.859-1.117l.265-.05c.754-.13 1.762-.334 2.733-.863 1.036-.566 1.913-1.43 2.572-2.701.666-1.281.617-2.602.434-3.645a20.012 20.012 0 0 0-.656-2.468l-.132-.423c-.585-1.91-.656-2.839-.174-3.573.526-.8 1.245-.984 3.118-1.47l.243-.06c1.902-.491 4.477-1.315 5.968-4.497 1.616-3.445.705-7.33-.286-9.966a25.395 25.395 0 0 0-1.065-2.43c.151-.006.303-.006.454-.006a24.136 24.136 0 0 1 12.95 3.745c-.549.73-1.283 1.69-2.102 2.716-1.799 2.25-3.826 4.566-5.208 5.604a3.968 3.968 0 0 0-1.388 1.852 4.174 4.174 0 0 0-.157 2.099c.2 1.19.83 2.304 1.39 3.156.466.712 1.014 1.43 1.474 2.036l.314.408c.266.358.486.652.648.907.083.123.143.223.183.297.04.071.054.109.057.111.114.315.237.83.38 1.544l.063.303a18.14 18.14 0 0 1 4.111-1.272 14.818 14.818 0 0 0-.536-2.058c-.314-.85-.997-1.761-1.488-2.413a135.44 135.44 0 0 0-.371-.486 30.5 30.5 0 0 1-1.254-1.73c-.442-.675-.657-1.14-.728-1.424 1.856-1.435 4.135-4.105 5.854-6.252.845-1.058 1.599-2.044 2.161-2.799a24.25 24.25 0 0 1 7.881 16.633c1.656.132 3.084.349 4.312.603C56.717 12.413 44.085 0 28.554 0c-1.01 0-2.013.052-2.998.154Zm-18.6 39.53a24.333 24.333 0 0 1 6.556-30.17 24.267 24.267 0 0 1 9.994-4.7 21.811 21.811 0 0 1 1.653 3.42c.897 2.387 1.257 4.834.417 6.632-.642 1.367-1.556 1.753-3.164 2.167l-.462.115c-1.52.368-3.915.946-5.406 3.21-1.716 2.607-.87 5.463-.342 7.19l.171.55c.228.728.4 1.286.491 1.817.109.62.029.847-.011.93-.286.551-.571.777-.823.914-.314.172-.725.286-1.433.41-.114.022-.24.042-.371.062-1.322.217-3.424.563-5.134 2.402-1.388 1.486-1.894 3.459-2.136 5.051Zm21.618 18.08c.172-2.76 1.413-6.124 3.521-9.295a22.935 22.935 0 0 1 2.53-3.482 25.394 25.394 0 0 1 12.838-7.861 1.43 1.43 0 0 0-.694-2.776 28.25 28.25 0 0 0-14.291 8.75 26.89 26.89 0 0 0-2.074 2.696 10.192 10.192 0 0 1-.422-2.913c0-2.621 1.333-5.469 3.447-7.727a15.2 15.2 0 0 1 9.122-4.672c7.996-1.058 12.959-.171 15.885.65a2.14 2.14 0 0 1 1.538 1.732 2.144 2.144 0 0 1-.935 2.121c-.163.109-.426.372-.743.972-.374.757-.68 1.547-.913 2.359a82.5 82.5 0 0 0-.743 2.644l-.165.606c-.317 1.172-.669 2.43-1.091 3.677-.834 2.464-2.01 5.094-3.99 7.113-2.052 2.095-4.84 3.402-8.563 3.402-3.795 0-6.444-1.541-8.138-3.314-1.153 2.116-1.753 4.108-1.844 5.578a2.145 2.145 0 0 1-2.265 1.972 2.141 2.141 0 0 1-2.01-2.232Z"/></svg>