<svg xmlns="http://www.w3.org/2000/svg" width="64.167" height="63.291" fill="none"><path stroke="#754E29" stroke-linejoin="round" stroke-width="4.167" d="M32.083 2.083a7.17 7.17 0 0 1 3.237.766l25.05 12.705c.52.264.952.65 1.253 1.117.302.468.46 1 .46 1.543v25.067a5.691 5.691 0 0 1-.921 3.086 6.43 6.43 0 0 1-2.509 2.234L35.32 60.441a7.17 7.17 0 0 1-3.237.767 7.169 7.169 0 0 1-3.236-.766L5.513 48.602a6.43 6.43 0 0 1-2.507-2.233c-.603-.935-.922-2-.923-3.085v-25.07c0-.542.16-1.075.46-1.543a3.213 3.213 0 0 1 1.254-1.117l25.05-12.705a7.169 7.169 0 0 1 3.236-.766Z"/><path stroke="#754E29" stroke-linejoin="round" stroke-width="4.167" d="m2.083 16.425 30 15.22 30-15.22m-30 15.22v30.439M17.083 24.035l30-15.22m-35 23.828 10 5.089"/></svg>