<svg width="24.000000" height="18.000000" viewBox="0 0 24 18" fill="none" xmlns="http://www.w3.org/2000/svg" xmlns:xlink="http://www.w3.org/1999/xlink">
	<desc>
			Created with Pixso.
	</desc>
	<defs/>
	<path id="icon" d="M0.954956 2.06104C0 3.37549 0 5.25024 0 9C0 12.7498 0 14.6245 0.954956 15.939C1.26331 16.3633 1.6366 16.7366 2.06104 17.0452C3.37537 18 5.25024 18 9 18L15 18C18.7498 18 20.6246 18 21.939 17.0452C22.3634 16.7366 22.7367 16.3633 23.045 15.939C24 14.6245 24 12.7498 24 9C24 5.25024 24 3.37549 23.045 2.06104C22.7367 1.63672 22.3634 1.26343 21.939 0.954834C20.6246 0 18.7498 0 15 0L9 0C5.25024 0 3.37537 0 2.06104 0.954834C1.6366 1.26343 1.26331 1.63672 0.954956 2.06104ZM15 2L9 2C7.08057 2 5.80164 2.00269 4.83264 2.10767C3.90112 2.20874 3.49609 2.38452 3.23669 2.573C2.98193 2.75806 2.75793 2.98193 2.573 3.23657C2.38452 3.49609 2.20862 3.90112 2.10779 4.83276C2.00269 5.80176 2 7.08057 2 9C2 10.9194 2.00269 12.1982 2.10779 13.1672C2.20862 14.0989 2.38452 14.5039 2.573 14.7634C2.75793 15.0181 2.98193 15.2419 3.23669 15.427C3.49609 15.6155 3.90112 15.7913 4.83264 15.8923C5.80164 15.9973 7.08057 16 9 16L15 16C16.9194 16 18.1984 15.9973 19.1674 15.8923C20.0989 15.7913 20.5039 15.6155 20.7633 15.427C21.0181 15.2419 21.2421 15.0181 21.427 14.7634C21.6155 14.5039 21.7914 14.0989 21.8922 13.1672C21.9973 12.1982 22 10.9194 22 9C22 7.08057 21.9973 5.80176 21.8922 4.83276C21.7914 3.90112 21.6155 3.49609 21.427 3.23657C21.2421 2.98193 21.0181 2.75806 20.7633 2.573C20.5039 2.38452 20.0989 2.20874 19.1674 2.10767C18.1984 2.00269 16.9194 2 15 2ZM8.49805 4.13501C8.8064 3.95605 9.18665 3.95483 9.49609 4.13184L16.4961 8.13184C16.8077 8.30981 17 8.64111 17 9C17 9.35889 16.8077 9.69019 16.4961 9.86816L9.49609 13.8682C9.18665 14.0452 8.8064 14.0439 8.49805 13.865C8.1897 13.686 8 13.3564 8 13L8 5C8 4.64355 8.1897 4.31396 8.49805 4.13501ZM10 11.2769L13.9844 9L10 6.72314L10 11.2769Z" fill="#0F0F0F" fill-opacity="1.000000" fill-rule="evenodd"/>
</svg>
